<?xml version="1.0" encoding="UTF-8" standalone="no"?>
<!DOCTYPE svg PUBLIC "-//W3C//DTD SVG 1.1//EN" "http://www.w3.org/Graphics/SVG/1.1/DTD/svg11.dtd">
<svg width="100%" height="100%" viewBox="0 0 1024 1024" version="1.1" xmlns="http://www.w3.org/2000/svg" xml:space="preserve">
    <circle cx="512" cy="512" r="512" fill="rgb(86,182,255)" />
    <g transform="translate(200, 180) scale(1.6)">
        <g>
            <path d="M389.017,2.185C387.558,0.415 385.216,-0.369 382.988,0.165C340.613,10.321 301.804,30.97 267.639,61.537C240.428,85.882 216.107,116.528 195.348,152.626C162.355,209.999 149.204,261.901 147.228,270.213C141.593,278.733 136.094,287.233 130.823,295.553L101.656,295.553C88.01,295.553 76.907,306.656 76.907,320.302C76.907,332.933 86.419,343.385 98.656,344.87L98.656,354.05L96.407,354.05C72.009,354.05 52.159,373.9 52.159,398.298C52.159,422.696 72.009,442.546 96.407,442.546L171.403,442.546C195.801,442.546 215.651,422.696 215.651,398.298C215.651,373.9 195.801,354.05 171.403,354.05L169.153,354.05L169.153,344.87C181.39,343.385 190.902,332.932 190.902,320.302C190.902,306.656 179.799,295.553 166.153,295.553L145.05,295.553C148.914,289.523 152.882,283.424 156.922,277.312C164.369,273.695 196.317,257.117 237.722,220.285C280.365,182.352 341.372,114.816 389.844,8.49C390.797,6.402 390.475,3.955 389.017,2.185ZM171.404,366.05C189.185,366.05 203.652,380.517 203.652,398.298C203.652,416.079 189.185,430.546 171.404,430.546L96.408,430.546C78.627,430.546 64.16,416.079 64.16,398.298C64.16,380.517 78.627,366.05 96.408,366.05L171.404,366.05ZM110.657,345.051L157.154,345.051L157.154,354.05L110.657,354.05L110.657,345.051ZM178.903,320.302C178.903,327.332 173.184,333.051 166.154,333.051L101.657,333.051C94.627,333.051 88.908,327.332 88.908,320.302C88.908,313.272 94.627,307.553 101.657,307.553L166.154,307.553C173.184,307.553 178.903,313.272 178.903,320.302ZM230.187,210.927C206.724,231.848 186.179,246.163 171.805,255.114C212.553,195.357 280.539,103.48 353.899,37.461C356.362,35.244 356.562,31.45 354.345,28.987C352.128,26.524 348.334,26.323 345.871,28.541C276.365,91.092 211.788,176.337 170.106,236.412C177.59,215.345 189.118,187.531 205.75,158.609C225.87,123.622 249.384,93.971 275.64,70.48C304.973,44.236 337.844,25.649 373.513,15.115C326.982,112.603 270.265,175.192 230.187,210.927Z" fill="white" />
            <path d="M160.419,375.973C160.419,379.286 163.106,381.973 166.419,381.973C177.601,381.973 186.698,391.071 186.698,402.252C186.698,405.565 189.385,408.252 192.698,408.252C196.011,408.252 198.698,405.565 198.698,402.252C198.698,384.453 184.218,369.973 166.419,369.973C163.105,369.973 160.419,372.659 160.419,375.973Z" fill="white" />
        </g>
    </g>
</svg>
